<!-- 
title: rotating-gear.svg
author: Cong Le
version: 1.0
license(s): MIT, CC BY-SA 4.0
copyright: Copyright © 2025 Cong Le. All Rights Reserved.
-->


<svg 
  width="100" 
  height="100" 
  viewBox="0 0 100 100" 
  xmlns="http://www.w3.org/2000/svg"
>
  <!-- 
    SVG and XML namespace declaration. 
    The viewBox attribute makes our SVG scalable and defines the internal coordinate system.
  -->

  <style>
    /* 
      1. Define the animation "story" using @keyframes.
      We'll name it "spin". It performs a full 360-degree rotation.
    */
    @keyframes spin {
      from {
        /* The starting point of the rotation. */
        transform: rotate(0deg);
      }
      to {
        /* The ending point of the rotation. */
        transform: rotate(360deg);
      }
    }

    /* 
      2. Create a CSS class to apply the animation.
      We'll call it ".rotating-gear".
    */
    .rotating-gear {
      /* Apply the 'spin' animation. */
      animation-name: spin;
      
      /* Set the duration for one full spin to 4 seconds. */
      animation-duration: 4s;
      
      /* Use 'linear' for a constant, steady speed with no acceleration. */
      animation-timing-function: linear;
      
      /* Make the animation loop forever. */
      animation-iteration-count: infinite;

      /* 
         Crucial Step: Set the origin for the rotation.
         '50% 50%' (or 'center') ensures the gear spins around its geometric center.
         Without this, it would spin around the top-left corner (0,0) of the SVG canvas.
      */
      transform-origin: 50% 50%;
    }
  </style>

  <!-- 
    3. The SVG shape itself.
    This <path> element defines the visual shape of the gear.
    The 'd' attribute contains the path data (a series of commands and coordinates).
    The 'fill' sets the color of the gear.
    We apply our CSS class here to make it animate.
  -->
  <path 
    class="rotating-gear"
    fill="#6c757d" 
    d="M96.5,56.2c-1.9-4.9-4.8-9.4-8.5-13.2l-4-3.5L88,31.7c1.7-5.1,1.1-10.7-1.9-15.4C82.4,9,75.4,5,67.8,5h-0.2 c-2.4,0-4.8,0.3-7.2,1c-5.1,1.5-9.6,4.4-13.2,8.5l-3.5,4L35.9,15C30.8,13.4,25.2,14,19.8,17c-7.3,4.2-11.4,12.2-11.4,20.8v0.2 c0,2.4,0.3,4.8,1,7.2c1.5,5.1,4.4,9.6,8.5,13.2l4,3.5L18,70.1c-1.7,5.1-1.1,10.7,1.9,15.4c3.7,5.7,9.8,9,16.4,9h0.2 c2.4,0,4.8-0.3,7.2-1c5.1-1.5,9.6-4.4,13.2-8.5l3.5-4l7.8,3.5c5.1,1.7,10.7,1.1,15.4-1.9c7.3-4.2,11.4-12.2,11.4-20.8v-0.2 C99.1,61,98.4,58.6,96.5,56.2z M50,67.8c-9.8,0-17.8-8-17.8-17.8s8-17.8,17.8-17.8s17.8,8,17.8,17.8S59.8,67.8,50,67.8z"
  />

</svg>